<svg id="Layer_5" data-name="Layer 5" xmlns="http://www.w3.org/2000/svg" viewBox="0 0 68.55 77.07"><defs><style>.cls-1{fill:#fdfaf6;}.cls-2{fill:#026831;}</style></defs><path class="cls-1" d="M3184.89,122.68a5,5,0,0,0-5-5h-.4a5,5,0,0,0-1.4-3.74,14.68,14.68,0,0,0,1-2.13,5,5,0,0,0-3.06-6.42l-1.19-.42,0-1a5,5,0,0,0-4.75-5.19l-2.55-.12h-.25a5,5,0,0,0-5,4.81l0,1.21-.53,0a9.06,9.06,0,0,0-3.58.76,8.22,8.22,0,0,0-1.81,1.13,6.14,6.14,0,0,0-.47.42,5,5,0,0,0-5-4.54h-.21l-2.3.1a5,5,0,0,0-3.92,2.19,8.09,8.09,0,0,0-.85-.06,8.26,8.26,0,0,0-2.4.36l-.28.09c0-.07-.05-.15-.07-.2a6.5,6.5,0,0,0-.43-1c-.08-.15-.15-.29-.22-.4a9.87,9.87,0,0,0-1.56-2.06,9.18,9.18,0,0,0-5.3-2.66,8.79,8.79,0,0,0-1.33-.1,9.22,9.22,0,0,0-1.65.16,10,10,0,0,0-2.1.63,18.69,18.69,0,0,0-2.67,1.41,5,5,0,0,0-2.18,5.52c.61,2.32,1.4,5.65,2.08,8.56-.34,0-.68.1-1,.17a10.05,10.05,0,0,0-4.41,2.29,11,11,0,0,0-2.62,3.51,12.4,12.4,0,0,0-.71,1.81,16,16,0,0,0-.45,2.52s0,.08,0,.12c0,.53,0,1.06,0,1.69a16.12,16.12,0,0,0,.44,3,16.43,16.43,0,0,0,1,3,17.81,17.81,0,0,0,1.44,2.53,4.93,4.93,0,0,0-.42,2.57c.51,4.72,1.15,9.54,1.9,14.33a5,5,0,0,0,4.94,4.24,4.11,4.11,0,0,0,.78-.07l1.9-.3a5,5,0,0,0,4-3.47,7.35,7.35,0,0,0,1.15.25l.36.05a5,5,0,0,0,1.23.21l.49,0a5,5,0,0,0,3.26,1.32l2,0a5,5,0,0,0,1.5-.23,4.56,4.56,0,0,0,1.21.15,5,5,0,0,0,3.22-1.17l.28.11,1.84.56a4.88,4.88,0,0,0,1.46.22,5.05,5.05,0,0,0,1.5-.23,5,5,0,0,0,3.47,1.41,4.56,4.56,0,0,0,.9-.08l1.3-.23a8.18,8.18,0,0,0,3.41,1h.48a8,8,0,0,0,5.25-2,8.18,8.18,0,0,0,1.07-1.13l.14-.18q.24-.36.45-.75a7.52,7.52,0,0,0,.82.05h.37a8,8,0,0,0,1.74-.29l.14,0a2.53,2.53,0,0,0,.36-.12,7.47,7.47,0,0,0,2.11,1.15l.26.09a8.06,8.06,0,0,0,1.8.3l.45,0a7.56,7.56,0,0,0,1.76-.21,7.3,7.3,0,0,0,4-2.57,7,7,0,0,0,1.29-2.58,7.47,7.47,0,0,0,.23-2.15,5.29,5.29,0,0,0-.08-.9l0-.14a5.08,5.08,0,0,0,.51-2.75,8.87,8.87,0,0,0-.7-2.69,6.54,6.54,0,0,0-.57-1,7,7,0,0,0,.48-.77,10,10,0,0,0,1-2.65,16.37,16.37,0,0,0,.37-3.37c.07-1.4.11-2.86.14-4.34q0-.3,0-.6c0-.16,0-.31,0-.44C3184.88,125.06,3184.89,123.84,3184.89,122.68Z" transform="translate(-3116.34 -79.76)"/><path class="cls-2" d="M3129.92,140.72a5.18,5.18,0,0,1,.18.84,6.11,6.11,0,0,1,0,1.76l0,.2-.05.25,0,.11,0,.12a1.49,1.49,0,0,0-.07.24,3.51,3.51,0,0,1-.43.84,5.69,5.69,0,0,1-1.23,1.33,9.49,9.49,0,0,1-1.32.83c.22,1.48.43,2.91.64,4.29l-1.9.31q-1.11-7.12-1.87-14.12l1.17-.14a3.66,3.66,0,0,1,1.74,0,3.79,3.79,0,0,1,.91.32,4.25,4.25,0,0,1,.81.51,4.65,4.65,0,0,1,.67.66l.27.41.24.41s.08.19.18.4Zm-1.7,2.33a3.79,3.79,0,0,0,0-1.21,4.08,4.08,0,0,0-.12-.59l0-.08,0-.11a.46.46,0,0,0,0-.09l0-.08a1,1,0,0,0,0-.1l0-.07-.12-.25a1.18,1.18,0,0,0-.17-.2,2.22,2.22,0,0,0-.37-.38,2.66,2.66,0,0,0-.45-.29,1.54,1.54,0,0,0-.47-.16,1.22,1.22,0,0,0-.37-.05q.33,2.82.72,5.78a3.43,3.43,0,0,0,1.21-1.14,2.17,2.17,0,0,0,.24-.45l0-.07a.11.11,0,0,1,0-.06v-.12l0-.13Z" transform="translate(-3116.34 -79.76)"/><path class="cls-2" d="M3137.19,145.55c0,1,0,2,0,3l-1.92-.08v-.28l-.14,0-.42.06-.22,0a1.1,1.1,0,0,1-.24,0,2.62,2.62,0,0,1-1.69-.84,2.31,2.31,0,0,1-.52-.86,2.44,2.44,0,0,1-.1-1,2.34,2.34,0,0,1,.28-.92,3.19,3.19,0,0,1,.26-.42,3.73,3.73,0,0,1,.35-.34,2.64,2.64,0,0,1,1.66-.69,5.2,5.2,0,0,1,.68,0c0-.22-.05-.41-.06-.56a3.63,3.63,0,0,0-.12-.56,2,2,0,0,0-.2-.42.75.75,0,0,0-.18-.18.37.37,0,0,0-.22,0l-.08,0-.08,0a.48.48,0,0,0-.08.1h0l0,0,0,.08-.08.12-.08.14a.32.32,0,0,0,0,.16,6.27,6.27,0,0,0,0,.66l-1.93,0c0-.38,0-.66,0-.82a3.67,3.67,0,0,1,.12-.58,2.36,2.36,0,0,1,.27-.52.94.94,0,0,1,.12-.2l.05-.08,0,0,0-.06a2.69,2.69,0,0,1,.44-.46,2.13,2.13,0,0,1,1.2-.48,2.27,2.27,0,0,1,1.24.24,2,2,0,0,1,.52.38,2.8,2.8,0,0,1,.38.44,3.4,3.4,0,0,1,.44.92,4.54,4.54,0,0,1,.2.88c0,.22,0,.49.08.82s0,.54,0,.77q0,.67.06,1.44l0,.06h0Zm-2.16.72a.86.86,0,0,0,.18-.16l.08-.14,0-.38a.4.4,0,0,0-.16-.3.32.32,0,0,0-.2-.1.54.54,0,0,0-.28,0,.87.87,0,0,0-.54.2.59.59,0,0,0-.24.44.71.71,0,0,0,0,.2.7.7,0,0,0,.1.16.64.64,0,0,0,.46.24h.14l.18,0A.86.86,0,0,0,3135,146.27Z" transform="translate(-3116.34 -79.76)"/><path class="cls-2" d="M3144.78,148.33l-1.22,1.49c-.86-.7-1.75-1.38-2.67-2l-.06,2.13-1.92,0,.34-11.58,1.92.08-.18,6.23a4.91,4.91,0,0,0,1.81-2.38l1.82.62a7.18,7.18,0,0,1-2.58,3.38C3143,146.89,3143.9,147.6,3144.78,148.33Z" transform="translate(-3116.34 -79.76)"/><path class="cls-2" d="M3157.21,150.37l-1.88.34-.84-4.52H3153c-.56,0-1.09,0-1.58,0l-1,3.36-1.85-.56,4.17-13.43,1.86.12Zm-4.26-6.1a10.93,10.93,0,0,1,1.2,0l-.8-4.41-1.38,4.41Z" transform="translate(-3116.34 -79.76)"/><path class="cls-2" d="M3164.25,143.52l0,.1h0c.08,1.16.13,2.28.16,3.37a9,9,0,0,1,0,1.75,3.25,3.25,0,0,1-.31,1,3.15,3.15,0,0,1-.28.51,3.17,3.17,0,0,1-1.39,1,3,3,0,0,1-1.15.17,2.85,2.85,0,0,1-2-1,2.47,2.47,0,0,1-.63-1.11l1.87-.45a.44.44,0,0,0,.12.19l.13.13v0a.91.91,0,0,0,.21.15,1.66,1.66,0,0,0,.39.11,1.09,1.09,0,0,0,.4-.07.81.81,0,0,0,.34-.21.8.8,0,0,0,.13-.13.86.86,0,0,0,.11-.19,1.19,1.19,0,0,0,.14-.47,4.74,4.74,0,0,0,0-.91l-.2.08a.46.46,0,0,1-.16,0l-.17,0-.3,0a3,3,0,0,1-.59,0,3.58,3.58,0,0,1-1.09-.36,3.9,3.9,0,0,1-.87-.67,1.11,1.11,0,0,0-.18-.19,2.48,2.48,0,0,0-.18-.25l-.16-.25-.12-.25a3.47,3.47,0,0,1-.26-1.1,3.21,3.21,0,0,1,.11-1.11l0-.13.05-.14a1,1,0,0,1,.1-.27l.12-.25s0-.07.07-.13l.09-.12a2.49,2.49,0,0,1,.89-.81,3.21,3.21,0,0,1,2.48-.36l0-.22,0-.24,1.94-.14C3164.14,141.6,3164.2,142.54,3164.25,143.52Zm-2.2,2.06a1,1,0,0,0,.26-.34.79.79,0,0,0,.08-.29h0c0-.48,0-.85-.07-1.12a.73.73,0,0,0-.12-.25.7.7,0,0,0-.26-.28,1.23,1.23,0,0,0-.86-.16,1.07,1.07,0,0,0-.72.44l0,0s0,0,0,0,0,0,0,.06l0,.06a.43.43,0,0,0,0,.1l0,.06V144a1.36,1.36,0,0,0,.07.95.19.19,0,0,0,0,.1l0,.08,0,0,0,0a.17.17,0,0,1,0,.05l.09.1a1.48,1.48,0,0,0,.86.45h.38A.69.69,0,0,0,3162.05,145.58Z" transform="translate(-3116.34 -79.76)"/><path class="cls-2" d="M3172.27,142.4a10.7,10.7,0,0,1-.1,1.84,6.36,6.36,0,0,1-.22,1,3.16,3.16,0,0,1-.2.54,2.55,2.55,0,0,1-.32.53,2.71,2.71,0,0,1-1,.82l-.28.12-.16.06-.14,0a3.74,3.74,0,0,1-.64.1,2.8,2.8,0,0,1-1.3-.28,3,3,0,0,1-1-.8,2.91,2.91,0,0,1-.56-1.11l0-.16,0-.08a.07.07,0,0,1,0-.06l0-.24c0-.18-.05-.34-.06-.46a22.78,22.78,0,0,1,0-3.56l1.92.1a19,19,0,0,0,0,3.26c0,.08,0,.21,0,.38l0,.18v0l0,0v.06a1.06,1.06,0,0,0,.22.42.84.84,0,0,0,.34.28.73.73,0,0,0,.36.08.69.69,0,0,0,.2,0s0,0,0,0l.06,0,.12,0a.82.82,0,0,0,.32-.26.58.58,0,0,0,.12-.2c0-.08,0-.16.08-.26a5,5,0,0,0,.16-.7,15.15,15.15,0,0,0,0-3.2l1.92-.12C3172.25,141.39,3172.27,142,3172.27,142.4Z" transform="translate(-3116.34 -79.76)"/><path class="cls-2" d="M3178.66,146v.1a2.26,2.26,0,0,1-.07.77,1.89,1.89,0,0,1-.36.74,2.28,2.28,0,0,1-1.29.83,2.21,2.21,0,0,1-.73.06,2.85,2.85,0,0,1-.71-.12,2.69,2.69,0,0,1-1.18-.83,3.5,3.5,0,0,1-.57-1.2l1.87-.45a.84.84,0,0,0,.22.43.47.47,0,0,0,.28.22l.19,0h.17a.38.38,0,0,0,.23-.13.15.15,0,0,0,0-.07.24.24,0,0,0,0-.12v0a.2.2,0,0,1,0-.07s0,0,0,0,0,0,0,0l0,0a0,0,0,0,0,0,0v0h0a1.06,1.06,0,0,0-.21-.19l-.31-.2-.41-.25-.46-.32-.12-.11-.11-.11a2.08,2.08,0,0,1-.21-.21,2.67,2.67,0,0,1-.38-.49,2.88,2.88,0,0,1-.28-.59,3.24,3.24,0,0,1-.16-.65,2.81,2.81,0,0,1,0-.71,5.2,5.2,0,0,1,.18-.67,2.44,2.44,0,0,1,.93-1.15,2.34,2.34,0,0,1,1.4-.4,2.65,2.65,0,0,1,1.38.44l.14.11a.65.65,0,0,0,.15.11l.13.15a.69.69,0,0,1,.13.15,2.24,2.24,0,0,1,.35.58,3.66,3.66,0,0,1,.31,1.2l-1.91.17a2.68,2.68,0,0,0-.15-.59,1.18,1.18,0,0,0-.11-.19l0,0v0l0,0h0l0,0a.58.58,0,0,0-.36-.12.36.36,0,0,0-.28.08.54.54,0,0,0-.22.27.58.58,0,0,0,0,.2,2,2,0,0,0,0,.22,1.12,1.12,0,0,0,.05.22,1,1,0,0,0,.12.23.81.81,0,0,0,.17.23l.09.1.06.07.06,0a3.43,3.43,0,0,0,.29.2l.38.22c.16.1.3.21.43.31a4.24,4.24,0,0,1,.5.41s0,.06.05.06l.06.08.11.15.2.35a2.52,2.52,0,0,1,.14.39l0,.18Z" transform="translate(-3116.34 -79.76)"/><path class="cls-1" d="M3155.53,110a4,4,0,0,1-4-3.85,4.78,4.78,0,0,0-1.85-1.93,8.3,8.3,0,0,1-7.09,3.58,9.85,9.85,0,0,1-1.62-.14,13.44,13.44,0,0,1-4.52-1.63c-6.67-4.24-11.32-11.39-13.5-15.28a5,5,0,0,1,.05-5,5,5,0,0,1,4.29-2.47,5.12,5.12,0,0,1,.78.06,13.51,13.51,0,0,0,2,.16,25.05,25.05,0,0,0,7.77-1.67,37.07,37.07,0,0,1,11.44-2.08h.38c10.74,0,19.14,5,21.94,13.15a6.42,6.42,0,0,1-.29,5.35l-.12.26c-2,4.43-6.41,8.35-11.9,10.46a4.58,4.58,0,0,1-.71.19,3.56,3.56,0,0,1-.68.29c-.45.15-.91.28-1.38.4A3.71,3.71,0,0,1,3155.53,110Z" transform="translate(-3116.34 -79.76)"/><path class="cls-2" d="M3136.21,106.63c.06.16.11.38.18.61a6.27,6.27,0,0,1,.2,2.47,3.66,3.66,0,0,1-1,2.15,3.44,3.44,0,0,1,2.41,2.74,3.68,3.68,0,0,1-.24,2.48,4.69,4.69,0,0,1-1.82,1.79,10.27,10.27,0,0,1-2,.77,13.63,13.63,0,0,1-2.14.48c-.06-.3-2.2-10-3.53-15a13.65,13.65,0,0,1,1.87-1,5.27,5.27,0,0,1,1.2-.37,4.2,4.2,0,0,1,1.37,0,4,4,0,0,1,1.31.43,3.75,3.75,0,0,1,1.09.8,4.56,4.56,0,0,1,.8,1l.15.29A1.67,1.67,0,0,1,3136.21,106.63Zm-2.08,1.21a1,1,0,0,0-.11-.31l-.07-.16a1.32,1.32,0,0,0-.1-.18,2.13,2.13,0,0,0-.38-.52,1.87,1.87,0,0,0-1-.55,2.61,2.61,0,0,0-1.25.22l-.31.13c.51,1.83.87,3,1.31,4.89a4,4,0,0,0,1.78-1.23,3.2,3.2,0,0,0,.16-2.29Zm1.68,7.09a1.27,1.27,0,0,0-1.25-1.06,10.17,10.17,0,0,0-1.62.26c.21.85.45,2.23.63,2.89.14,0,1.14-.34,1.47-.48A1.48,1.48,0,0,0,3135.81,114.93Z" transform="translate(-3116.34 -79.76)"/><path class="cls-2" d="M3144.74,116a.79.79,0,0,0,.05-.24l2.28.12a3.16,3.16,0,0,1-.19.88,4.82,4.82,0,0,1-.36.76,3.66,3.66,0,0,1-.57.66,2.41,2.41,0,0,1-.81.53l-.12,0-.09,0-.17.07-.07,0-.14.05-.19,0a5.38,5.38,0,0,1-.83.1,3.72,3.72,0,0,1-1.61-.43,4,4,0,0,1-1.25-1,3.86,3.86,0,0,1-.77-1.4,2.11,2.11,0,0,1-.1-.43l0-.09a.13.13,0,0,0,0-.07v0l0-.16c0-.23,0-.46,0-.72a6,6,0,0,1,.16-1.4,7.9,7.9,0,0,1,.43-1.33,4.44,4.44,0,0,1,.88-1.3,2.86,2.86,0,0,1,.68-.52,3.47,3.47,0,0,1,2.57-.38,2.69,2.69,0,0,1,.86.4,4.34,4.34,0,0,1,.66.57c.08.09.16.2.24.31l0,0,.05,0,0,.1.12.21a4.74,4.74,0,0,1,.3.71,10.23,10.23,0,0,1,.31,1.29,6,6,0,0,1,.1.64,5.73,5.73,0,0,1,.05.66l-2.28.1L3142,115c0,.08,0,.14,0,.17v.06a.14.14,0,0,0,0,.06v.09l0,.15a1.73,1.73,0,0,0,.33.61,1.82,1.82,0,0,0,.55.45,1.42,1.42,0,0,0,.62.17,1.92,1.92,0,0,0,.33,0l.09,0,.08,0,.09,0,0,0h0a.66.66,0,0,0,.17-.12l.19-.21C3144.65,116.17,3144.69,116.07,3144.74,116Zm-1.95-3.73a1.9,1.9,0,0,0-.4.64.35.35,0,0,0,0,.12l2.23-.14,0,0c-.05-.15-.1-.27-.14-.36l0-.07,0,0,0,0a.42.42,0,0,0-.12-.14.78.78,0,0,0-.41-.29.86.86,0,0,0-.52,0,1.23,1.23,0,0,0-.26.12A1.67,1.67,0,0,0,3142.79,112.25Z" transform="translate(-3116.34 -79.76)"/><path class="cls-2" d="M3156,114.29a4.19,4.19,0,0,1,.22,1.31,4.41,4.41,0,0,1-.73,2.42,4.18,4.18,0,0,1-2,1.62,3.92,3.92,0,0,1-1.3.27h-.53l-.19,0-.17-.06v.41H3149c0-.79-.3-10.24-.4-12.73l2.31-.09c.08,2,.26,3,.3,4.77l.29-.11a4.31,4.31,0,0,1,1.35-.12,3.67,3.67,0,0,1,1.31.33,3.31,3.31,0,0,1,1.12.83,2,2,0,0,1,.21.27,2.18,2.18,0,0,1,.2.32A2.81,2.81,0,0,1,3156,114.29Zm-2.44,2.47a1.94,1.94,0,0,0,.35-1.14,1.8,1.8,0,0,0-.1-.55l-.11-.25s0-.08-.06-.08l0,0s0,0,0,0a1.26,1.26,0,0,0-.89-.41,1,1,0,0,0-.53.05H3152s0,0-.07,0l-.05,0a1,1,0,0,0-.19.14,1,1,0,0,0-.28.35,1.33,1.33,0,0,0-.16.43c0,.59,0,1.21,0,1.87a.12.12,0,0,0,.07.07,1.14,1.14,0,0,0,.35.3.62.62,0,0,0,.19.06h.21a1.71,1.71,0,0,0,.51-.1,1.75,1.75,0,0,0,.52-.29A2,2,0,0,0,3153.56,116.76Z" transform="translate(-3116.34 -79.76)"/><path class="cls-2" d="M3162.51,116.1a1,1,0,0,0,.07-.23l2.26.35a2.83,2.83,0,0,1-.28.85,4.11,4.11,0,0,1-.43.73,4,4,0,0,1-.64.6,2.51,2.51,0,0,1-.86.44l-.12,0h-.1l-.17,0-.07,0-.15,0h-.19a5.67,5.67,0,0,1-.84,0,3.72,3.72,0,0,1-1.57-.59,4.3,4.3,0,0,1-1.14-1.15,4.19,4.19,0,0,1-.63-1.48,2.54,2.54,0,0,1-.05-.44v-.09a.45.45,0,0,0,0-.08V115a6.07,6.07,0,0,1,0-.71,5.32,5.32,0,0,1,.31-1.38,6.9,6.9,0,0,1,.56-1.29,4.52,4.52,0,0,1,1-1.21,3.42,3.42,0,0,1,.73-.45,3.2,3.2,0,0,1,.83-.25,3.14,3.14,0,0,1,1.78.13,2.83,2.83,0,0,1,.81.49,4.65,4.65,0,0,1,.61.64l.2.33,0,0,0,0,0,.1a1.91,1.91,0,0,1,.1.23,5.42,5.42,0,0,1,.23.74c.07.38.13.81.18,1.31,0,.25,0,.46,0,.65s0,.48,0,.67l-2.29-.14-2.93-.13a1.31,1.31,0,0,1,0,.17v.06a.07.07,0,0,0,0,.06v.09l0,.15a1.61,1.61,0,0,0,.27.65,1.74,1.74,0,0,0,.5.51,1.45,1.45,0,0,0,.6.23,1.87,1.87,0,0,0,.33,0h.1l.08,0h.09l.05,0h0a.59.59,0,0,0,.17-.1l.22-.19C3162.39,116.28,3162.45,116.19,3162.51,116.1Zm-1.56-3.92a1.72,1.72,0,0,0-.47.6s0,0-.06.11l2.24.09,0,0a2.07,2.07,0,0,0-.11-.37v-.07l0,0,0,0a.4.4,0,0,0-.1-.15.81.81,0,0,0-.37-.33.92.92,0,0,0-.53,0,1.69,1.69,0,0,0-.27.1A1,1,0,0,0,3161,112.18Z" transform="translate(-3116.34 -79.76)"/><path class="cls-2" d="M3174.52,117.44l-1.64,2q-1.7-1.4-3.52-2.74l-.1,2.82-2.56-.07.61-15.78,2.55.13-.33,8.67a6.54,6.54,0,0,0,2.42-3.15l2.41.84a8.91,8.91,0,0,1-2.13,3.34,9,9,0,0,1-1.34,1.13C3172.15,115.51,3173.35,116.46,3174.52,117.44Z" transform="translate(-3116.34 -79.76)"/><path class="cls-2" d="M3131.55,124l-2.25.32a1.76,1.76,0,0,0-.21-.56,2.48,2.48,0,0,0-.41-.57,4.26,4.26,0,0,0-.57-.52,4.16,4.16,0,0,0-.63-.36,2,2,0,0,0-1.24,0,2.47,2.47,0,0,0-1.24.66,4.17,4.17,0,0,0-1.26,2.13,7.28,7.28,0,0,0-.11.88c0,.26,0,.55,0,.86a8.72,8.72,0,0,0,.27,1.75,8.58,8.58,0,0,0,1.43,3.18,3.63,3.63,0,0,0,.53.65,3.19,3.19,0,0,0,.6.52,4,4,0,0,0,.64.35,3.28,3.28,0,0,0,.67.18,2.72,2.72,0,0,0,1.73-.34,2.17,2.17,0,0,0,.81-.66,2.45,2.45,0,0,0,.4-1.18c0-.44,0-.77-.05-1.3l-2.83.68-.53-2.21,5.07-1.22.53,2.22h0a7.87,7.87,0,0,1,.08,2.4,5.18,5.18,0,0,1-1.18,2.38,4.08,4.08,0,0,1-2.87,1.54,6.26,6.26,0,0,1-1.43-.06,5.57,5.57,0,0,1-1.23-.33,7.24,7.24,0,0,1-1.12-.61,10,10,0,0,1-.89-.77,7.78,7.78,0,0,1-.75-.89,12.23,12.23,0,0,1-1.11-1.94,10.92,10.92,0,0,1-.68-2.07,11.59,11.59,0,0,1-.33-2.19c0-.38,0-.75,0-1.12a12.36,12.36,0,0,1,.25-1.52,7.82,7.82,0,0,1,.43-1.06,5.94,5.94,0,0,1,1.43-1.95,5,5,0,0,1,2.24-1.17,6.61,6.61,0,0,1,1.1-.13,4.76,4.76,0,0,1,1.54.31,5.67,5.67,0,0,1,2,1.43,4.36,4.36,0,0,1,.72,1A4.62,4.62,0,0,1,3131.55,124Z" transform="translate(-3116.34 -79.76)"/><path class="cls-2" d="M3143.69,128.3a5,5,0,0,1-.05,1.77,4.79,4.79,0,0,1-.64,1.59,4.36,4.36,0,0,1-1.21,1.31,3.92,3.92,0,0,1-1.66.75,4.54,4.54,0,0,1-1.8,0,4.23,4.23,0,0,1-3.49-3.75,5.71,5.71,0,0,1,.1-1.68,5.48,5.48,0,0,1,.57-1.58,4.62,4.62,0,0,1,1.15-1.36,4.29,4.29,0,0,1,1-.51,7.88,7.88,0,0,1,.87-.2,6.51,6.51,0,0,1,1.65,0,3,3,0,0,1,.43.07,3.71,3.71,0,0,1,.46.13,3.66,3.66,0,0,1,.85.46,3.82,3.82,0,0,1,.72.62,3.37,3.37,0,0,1,.28.38l.13.18.1.21A4.72,4.72,0,0,1,3143.69,128.3Zm-2.46,1.26a1.88,1.88,0,0,0,0-.85,2.41,2.41,0,0,0-.28-.82l-.23-.33a1,1,0,0,0-.27-.24l-.29-.17-.18-.05h-.08a.13.13,0,0,0-.1,0,5.56,5.56,0,0,0-1,0l-.41.11a.69.69,0,0,0-.21.1,2.48,2.48,0,0,0-.85,1.51,3.14,3.14,0,0,0,0,.9,2.24,2.24,0,0,0,.23.77,1.92,1.92,0,0,0,1.29.85,1.83,1.83,0,0,0,1.51-.31,2.6,2.6,0,0,0,.57-.62A2.36,2.36,0,0,0,3141.23,129.56Z" transform="translate(-3116.34 -79.76)"/><path class="cls-2" d="M3151,123.76l.38,2.37a5.38,5.38,0,0,0-1.36.41,5.5,5.5,0,0,0-.57.36l-.27.2-.09.11-.12.12a2.89,2.89,0,0,0-.68,1.07,2.53,2.53,0,0,0-.14,1.19h0c.2,1.4.39,2.68.58,3.83l-2.5.38q-.73-4.62-1.32-9.29l2.5-.3c0,.13,0,.34.08.62s.06.44.06.47c.15-.13.28-.23.39-.31a8,8,0,0,1,1-.58A7.82,7.82,0,0,1,3151,123.76Z" transform="translate(-3116.34 -79.76)"/><path class="cls-2" d="M3157.77,130.13a.75.75,0,0,0,0-.24l2.31.12a3.23,3.23,0,0,1-.19.89,4.93,4.93,0,0,1-.36.77,4.23,4.23,0,0,1-.58.67,2.55,2.55,0,0,1-.82.53l-.12,0-.09,0-.17.07-.07,0-.15,0-.19,0a4.49,4.49,0,0,1-.84.09,3.7,3.7,0,0,1-1.63-.43,4.14,4.14,0,0,1-1.26-1,4,4,0,0,1-.78-1.42,3.14,3.14,0,0,1-.1-.43l0-.09a.45.45,0,0,0,0-.08v0l0-.17c0-.22,0-.46,0-.72a5.55,5.55,0,0,1,.17-1.41,7,7,0,0,1,.43-1.35,4.25,4.25,0,0,1,.89-1.32,3.19,3.19,0,0,1,.68-.53,3.74,3.74,0,0,1,.8-.33,3.17,3.17,0,0,1,1.8-.05,2.67,2.67,0,0,1,.87.41,4,4,0,0,1,.67.57c.08.1.16.2.24.32l0,0,.05,0,0,.1.12.21a4.86,4.86,0,0,1,.31.72,12,12,0,0,1,.31,1.3,6.52,6.52,0,0,1,.1.65,5.89,5.89,0,0,1,0,.67l-2.31.1-2.95.16a1,1,0,0,1,0,.17v.06s0,.05,0,.06v.1l0,.14a1.66,1.66,0,0,0,.33.63,1.85,1.85,0,0,0,.56.45,1.42,1.42,0,0,0,.62.17,1.92,1.92,0,0,0,.34-.05l.09,0,.07,0,.1,0,0,0h0l.17-.12c.06-.07.13-.14.19-.22Zm-1.65-3.77a2,2,0,0,0-.41.65.87.87,0,0,0-.05.12l2.26-.14,0,0a3.28,3.28,0,0,0-.15-.36l0-.07,0,0,0,0a.33.33,0,0,0-.12-.14.77.77,0,0,0-.41-.29.82.82,0,0,0-.53,0,1.23,1.23,0,0,0-.26.12A1.67,1.67,0,0,0,3156.12,126.36Z" transform="translate(-3116.34 -79.76)"/><path class="cls-2" d="M3169.32,130.16q.06,1.14.12,5.07l-2.3.05c0-2.56-.09-4.21-.12-5,0-.48-.06-.88-.1-1.2,0-.05,0-.26,0-.61l0-.3,0-.13,0-.13a4.66,4.66,0,0,0-.19-.91,1,1,0,0,0-.31-.45l-.07-.09-.1,0a.56.56,0,0,0-.17.07l-.09,0-.07.08a2.24,2.24,0,0,0-.34.64,4,4,0,0,0-.14.48l-.15.59a24.43,24.43,0,0,0-.77,4.66h0c0,.5,0,1,0,1.39l-2.31-.08q.07-2.43.07-10.64h2.31v.9l.05,0a2.24,2.24,0,0,1,.38-.29,2.72,2.72,0,0,1,.89-.32,2.37,2.37,0,0,1,1,0,2.81,2.81,0,0,1,.5.22,4.71,4.71,0,0,1,.41.29,3.3,3.3,0,0,1,.65.72,6.55,6.55,0,0,1,.38.8,7.71,7.71,0,0,1,.36,1.52l0,.16,0,.19,0,.32c0,.35.07.57.07.64C3169.26,129.23,3169.29,129.66,3169.32,130.16Z" transform="translate(-3116.34 -79.76)"/><path class="cls-2" d="M3179.84,126.63a.7.7,0,0,1,0,.14h0c0,1.62-.06,3.19-.13,4.7a13.79,13.79,0,0,1-.24,2.43,5,5,0,0,1-.54,1.37,3.92,3.92,0,0,1-.45.67,4.13,4.13,0,0,1-.62.56,4.38,4.38,0,0,1-1.42.7,4.11,4.11,0,0,1-1.63.12,4,4,0,0,1-2.66-1.54,3.46,3.46,0,0,1-.76-1.62l2.66-.42a.67.67,0,0,0,.14.28l.17.19v0a1.13,1.13,0,0,0,.28.22,2.18,2.18,0,0,0,.53.2,1.33,1.33,0,0,0,.56-.06,1,1,0,0,0,.51-.25,1.62,1.62,0,0,0,.19-.17,2.71,2.71,0,0,0,.17-.25,1.78,1.78,0,0,0,.25-.64A6.12,6.12,0,0,0,3177,132l-.28.08a.53.53,0,0,1-.22.06l-.26,0h-.42a4.17,4.17,0,0,1-.81-.09,5.2,5.2,0,0,1-1.49-.61,6.12,6.12,0,0,1-1.15-1,1.71,1.71,0,0,0-.22-.28,3.42,3.42,0,0,0-.23-.36c-.09-.19-.16-.31-.19-.37s-.11-.27-.14-.36a4.83,4.83,0,0,1-.26-1.57,4.27,4.27,0,0,1,.28-1.53l.06-.17.08-.2a1.69,1.69,0,0,1,.17-.36l.19-.34.11-.16.15-.17a3.58,3.58,0,0,1,1.31-1,4.63,4.63,0,0,1,1.54-.45,4.47,4.47,0,0,1,2,.22v-.64h2.72C3179.89,123.94,3179.88,125.25,3179.84,126.63Zm-3.31,2.72a1.44,1.44,0,0,0,.42-.47,1.54,1.54,0,0,0,.17-.42,14.12,14.12,0,0,0,0-1.67,1.44,1.44,0,0,0-.15-.39,1.17,1.17,0,0,0-.36-.44,1.85,1.85,0,0,0-1.25-.33,1.65,1.65,0,0,0-1.14.57.09.09,0,0,1,0,.06l0,0a.19.19,0,0,0,0,.08s0,.07-.06.09a.32.32,0,0,0-.06.15l-.06.09,0,.09a2.24,2.24,0,0,0-.12.73,2.06,2.06,0,0,0,.12.7.27.27,0,0,0,.06.14,3,3,0,0,0,.27.45,2,2,0,0,0,1.22.77A1.3,1.3,0,0,0,3176.53,129.35Z" transform="translate(-3116.34 -79.76)"/><path class="cls-2" d="M3167.83,94.22c-2.16-6.25-9-10.56-18.5-10.45a33.05,33.05,0,0,0-10.22,1.88c-3.57,1.17-7.26,2.35-11.66,1.66a1,1,0,0,0-1,1.48c2.47,4.4,6.75,10.42,12.16,13.85a9.54,9.54,0,0,0,3,1.06c3.45.57,6.7-1.91,4.55-5.86,0,0,0,0,0,0a6.44,6.44,0,0,1,1.53-8.39,5.73,5.73,0,0,1,8.19,1,11.83,11.83,0,0,1,.81,1.68c.08.18.14.41.28.51a6.39,6.39,0,0,0,4.62,1.28c.34,0,.67-.19,1-.23a.78.78,0,0,1,.6.15.63.63,0,0,1,0,.61,7.14,7.14,0,0,1-1.08,1.18,6.38,6.38,0,0,1-3.92,1.35c-.51,0-3,0-3.72.08a1.72,1.72,0,0,0-.74.28,1.57,1.57,0,0,0-.81,1.2h0a1.43,1.43,0,0,0,.3,1l.07.07,0,0c.79.77,2.56,1.18,3.7,3.17a5.5,5.5,0,0,1,.8,2s0,.22.05.47c4.55-1.75,8.16-4.9,9.69-8.36A2.8,2.8,0,0,0,3167.83,94.22Z" transform="translate(-3116.34 -79.76)"/><path class="cls-2" d="M3154.31,101.44l0,0a10.6,10.6,0,0,1,1.25,4.53c.39-.1.78-.21,1.16-.33A7.16,7.16,0,0,0,3154.31,101.44Z" transform="translate(-3116.34 -79.76)"/><path class="cls-2" d="M3152.17,92.82l1.09-.63a1.44,1.44,0,0,0-1.28-.8,1.43,1.43,0,0,0,0,2.85,1.45,1.45,0,0,0,1.28-.79Z" transform="translate(-3116.34 -79.76)"/></svg>